<svg xmlns="http://www.w3.org/2000/svg" xmlns:xlink="http://www.w3.org/1999/xlink" viewBox="0 0 341.99 197.47"><defs><style>.cls-1{fill:#0071bc;}.cls-2{fill:url(#linear-gradient);}.cls-3{fill:#fff;}</style><linearGradient id="linear-gradient" x1="32.42" y1="98.75" x2="165.14" y2="98.75" gradientUnits="userSpaceOnUse"><stop offset="0" stop-color="#009ff4"/><stop offset="0.19" stop-color="#00a8f5"/><stop offset="0.51" stop-color="#00c2f8"/><stop offset="0.91" stop-color="#00ebfe"/><stop offset="1" stop-color="#00f5ff"/></linearGradient></defs><g id="Layer_2" data-name="Layer 2"><g id="Layer_1-2" data-name="Layer 1"><path class="cls-1" d="M149,81.7l-4.88,48.51a48.69,48.69,0,0,1-18,33l-22.76,18.17a32.75,32.75,0,0,1-41.16-.07L39.69,163.22c-8.58-6.89-16.78-22-17.88-32.94L16.92,81.7A66.17,66.17,0,0,1,82.76,8.91h.38A66.17,66.17,0,0,1,149,81.7Z"/><path class="cls-2" d="M55.52,163.22,78,181.3a32.86,32.86,0,0,0,23.75,7.15c1.46-.74,2.9-1.51,4.29-2.38,8-5,15.68-10.91,23.24-16.77a105,105,0,0,0,12.89-12,98.25,98.25,0,0,0,5.92-10.24c.84-2.45,1.57-4.93,2.17-7.44,0-.37,0-.73,0-1.09a43.09,43.09,0,0,1,1-18.12l1.25-3c.14-2.25.34-4.5.6-6.73a73.41,73.41,0,0,1-1.59-14.71c-.08-7.71,1.13-15.43,2.32-23.09a131,131,0,0,0,.31-19.11,91.67,91.67,0,0,0-7.08-11.12l4,5.13c-4.1-5.39-8-10.9-12-16.35a76.61,76.61,0,0,0-6.94-7.13c-6.52-4.6-13.16-8.93-19.35-14A66.28,66.28,0,0,0,99,8.91h-.38A66.17,66.17,0,0,0,32.75,81.7l4.89,48.58C38.74,141.24,46.94,156.33,55.52,163.22Z"/><path d="M138.83,24.72A75.22,75.22,0,0,0,83.14,0h-.38A75.1,75.1,0,0,0,8.05,82.6l4.89,48.57c1.35,13.43,10.65,30.56,21.17,39l22.53,18.08a42.05,42.05,0,0,0,26.13,9.21h.06a41.94,41.94,0,0,0,26.1-9.14l22.76-18.15A57.68,57.68,0,0,0,153,131.11l4.88-48.51A75.2,75.2,0,0,0,138.83,24.72ZM149,81.7l-4.88,48.51a48.69,48.69,0,0,1-18,33l-22.76,18.17a32.75,32.75,0,0,1-41.16-.07L39.69,163.22c-8.58-6.89-16.78-22-17.88-32.94L16.92,81.7A66.17,66.17,0,0,1,82.76,8.91h.38A66.17,66.17,0,0,1,149,81.7Z"/><path class="cls-1" d="M151.41,112.1,143.52,120a85.68,85.68,0,0,1-120.68.12l-8-8a19.81,19.81,0,0,1,14-33.85H137.42a19.8,19.8,0,0,1,14,33.82Z"/><path class="cls-3" d="M141.6,132.8a39,39,0,0,1,3.53-3.11,43.06,43.06,0,0,1,6.66-8.82,40.44,40.44,0,0,1,5.45-4.53c.72-1,1.47-2,2.26-3a42.51,42.51,0,0,1,4.41-13.93,47.52,47.52,0,0,1-2.74-10.86l-.18-.14a43.09,43.09,0,0,1-7.51-10.17h-109a19.8,19.8,0,0,0-14,33.85l8,8a85.7,85.7,0,0,0,101.83,14C140.76,133.67,141.17,133.23,141.6,132.8Z"/><path d="M164,87.11a28.28,28.28,0,0,0-26.54-17.74H28.8A28.71,28.71,0,0,0,8.55,118.46l8,8a93.84,93.84,0,0,0,66.56,27.45h.09a93.82,93.82,0,0,0,66.61-27.58l7.89-7.88A28.28,28.28,0,0,0,164,87.11Zm-141.12,33-8-8a19.81,19.81,0,0,1,14-33.85H137.42a19.8,19.8,0,0,1,14,33.82L143.52,120A85.68,85.68,0,0,1,22.84,120.1Z"/><polygon points="212.72 97.8 223.53 41.88 214.65 41.88 208.26 82.65 201.88 41.88 193 41.88 203.8 97.8 212.72 97.8"/><rect x="227.3" y="57.88" width="8.38" height="39.92"/><path d="M231.49,50.54a4.19,4.19,0,0,0,4.19-4.2h0a4.19,4.19,0,1,0-8.38,0h0A4.2,4.2,0,0,0,231.49,50.54Z"/><path d="M247.18,96.88a13.38,13.38,0,0,0,6.47,1.5,13.94,13.94,0,0,0,6.48-1.44,10.22,10.22,0,0,0,4.3-4.14A12.51,12.51,0,0,0,266,86.5a12.51,12.51,0,0,0-1.38-6.33,9.39,9.39,0,0,0-3.33-3.5,27.61,27.61,0,0,0-4.94-2.17.28.28,0,0,0-.15,0c-.06,0-.1,0-.12,0a.47.47,0,0,0-.15-.06.44.44,0,0,1-.16-.06,24.37,24.37,0,0,1-3.13-1.23,5.24,5.24,0,0,1-1.93-1.59,4.19,4.19,0,0,1-.74-2.56,4.68,4.68,0,0,1,.92-3.08,3.08,3.08,0,0,1,2.5-1.11,3.2,3.2,0,0,1,2.54,1,4.07,4.07,0,0,1,.92,2.8v.58l8-.08v-.46a12.33,12.33,0,0,0-1.43-6.07,9.68,9.68,0,0,0-4-4,12.79,12.79,0,0,0-6.09-1.38,12.11,12.11,0,0,0-6,1.46,10,10,0,0,0-4,4.14A13,13,0,0,0,241.84,69a11.82,11.82,0,0,0,1.27,5.79,10.18,10.18,0,0,0,3.15,3.57,24.8,24.8,0,0,0,4.5,2.37l.21.07a.42.42,0,0,0,.18,0,1.75,1.75,0,0,0,.5.23l.5.16c1.35.54,2.41,1,3.15,1.38a5.62,5.62,0,0,1,1.85,1.52,3.85,3.85,0,0,1,.73,2.4,4.31,4.31,0,0,1-1.14,3.14,4.12,4.12,0,0,1-3.09,1.17,4,4,0,0,1-3.12-1.25,4.74,4.74,0,0,1-1.15-3.36v-.46l-8,.07v.46a12.68,12.68,0,0,0,1.54,6.35A10.68,10.68,0,0,0,247.18,96.88Z"/><rect x="271.3" y="57.88" width="8.38" height="39.92"/><path d="M275.49,50.54a4.19,4.19,0,0,0,4.19-4.2h0a4.19,4.19,0,0,0-8.38,0h0A4.2,4.2,0,0,0,275.49,50.54Z"/><path d="M304.59,58.48a16.18,16.18,0,0,0-12.66,0,9.16,9.16,0,0,0-4,3.77,12,12,0,0,0-1.4,6V87.15a12.34,12.34,0,0,0,1.4,6.06,9.31,9.31,0,0,0,4,3.84,13.89,13.89,0,0,0,6.33,1.33,14.15,14.15,0,0,0,6.33-1.31,9,9,0,0,0,4-3.81,12.43,12.43,0,0,0,1.36-6v-19a12.32,12.32,0,0,0-1.36-6A8.91,8.91,0,0,0,304.59,58.48Zm-3,28.21a4.18,4.18,0,0,1-.87,2.86,3.58,3.58,0,0,1-4.94,0,4.13,4.13,0,0,1-.89-2.84V68.77a3.91,3.91,0,0,1,.91-2.75,3.58,3.58,0,0,1,4.92,0,4,4,0,0,1,.87,2.75Z"/><path d="M339.81,59.9a7.39,7.39,0,0,0-6.13-2.71,8.05,8.05,0,0,0-5.27,1.9,10.89,10.89,0,0,0-2.77,3.67V57.88h-8.5V97.8h8.5V70a6.29,6.29,0,0,1,1-3.81,3.47,3.47,0,0,1,3-1.27,3.54,3.54,0,0,1,3,1.25,6,6,0,0,1,1,3.75V97.8H342V67.65Q342,62.61,339.81,59.9Z"/><path d="M217.51,136.78a10.67,10.67,0,0,0,4.81-4.48,14.36,14.36,0,0,0,1.64-7.06V118.7a13.55,13.55,0,0,0-1.66-6.87,10.54,10.54,0,0,0-4.81-4.34,17.62,17.62,0,0,0-7.57-1.48H196.69v56h6.42V138.31h6.81c.43,0,.86,0,1.28,0L218.3,162h7.23l-8.24-25.09Zm-14.4-4.5V112.05h7.35a7.87,7.87,0,0,1,3.82.86,5.69,5.69,0,0,1,2.43,2.56,9,9,0,0,1,.82,4v5.77a8.06,8.06,0,0,1-.84,3.79,5.73,5.73,0,0,1-2.43,2.42,8.11,8.11,0,0,1-3.8.83Z"/><path d="M249.72,122.7a13.91,13.91,0,0,0-6.38-1.35c-3.69,0-6.55,1-8.58,3s-3,4.79-3,8.41l6.23,0a6.26,6.26,0,0,1,1.35-4.39,4.94,4.94,0,0,1,3.85-1.54,5.36,5.36,0,0,1,5.88,5.89V138h-5.81q-6.15,0-9.23,3.32t-3.07,10.06q0,5.63,2.53,8.41t7.62,2.78a10.85,10.85,0,0,0,4.85-1,6.31,6.31,0,0,0,2.9-2.92c.08-.16.14-.34.21-.51V162h6.12V132.74a12.77,12.77,0,0,0-1.39-6.16A9.24,9.24,0,0,0,249.72,122.7Zm-2.28,32.81a6.29,6.29,0,0,1-4.83,1.73,5.64,5.64,0,0,1-4.25-1.45,6.13,6.13,0,0,1-1.41-4.44q0-4.08,1.58-6.09a5.62,5.62,0,0,1,4.73-2H249v7A7.52,7.52,0,0,1,247.44,155.51Z"/><path d="M291,110.43h-6.42v11.62H271v-5.47a5.11,5.11,0,0,1,1-3.3,3.35,3.35,0,0,1,2.77-1.2H279v-6h-4.38q-4.89,0-7.42,2.73c-1.7,1.82-2.54,4.43-2.54,7.84v5.43h-4.74v6h4.74V162H271V128.08h13.58v23.5c0,3.49.75,6.12,2.25,7.91s3.86,2.67,7.09,2.67h3.77v-6h-3A3.37,3.37,0,0,1,292,155a5.18,5.18,0,0,1-.94-3.33V128.08h6.69v-6H291Z"/></g></g></svg>